<?xml version="1.0" encoding="utf-8"?>
<!-- Generator: Adobe Illustrator 16.0.0, SVG Export Plug-In . SVG Version: 6.00 Build 0)  -->
<!DOCTYPE svg PUBLIC "-//W3C//DTD SVG 1.1//EN" "http://www.w3.org/Graphics/SVG/1.1/DTD/svg11.dtd">
<svg version="1.1" id="Layer_1" xmlns="http://www.w3.org/2000/svg" xmlns:xlink="http://www.w3.org/1999/xlink" x="0px" y="0px"
	 width="128px" height="128px" viewBox="0 0 128 128" enable-background="new 0 0 128 128" xml:space="preserve">
<g>
	<g>
		<rect x="29.242" y="17.977" fill="#282D33" width="61.462" height="4"/>
	</g>
	<g>
		<polygon fill="#282D33" points="128,44.923 0,44.923 0,17.977 9.926,17.977 9.926,21.977 4,21.977 4,40.923 124,40.923 
			124,21.977 110.898,21.977 110.898,17.977 128,17.977 		"/>
	</g>
	<g>
		<g>
			<rect x="16.694" y="59.104" fill="#282D33" width="7.383" height="4"/>
		</g>
		<g>
			<rect x="31.233" y="59.104" fill="#282D33" width="7.381" height="4"/>
		</g>
		<g>
			<rect x="45.771" y="59.104" fill="#282D33" width="7.382" height="4"/>
		</g>
		<g>
			<rect x="60.309" y="59.104" fill="#282D33" width="7.38" height="4"/>
		</g>
		<g>
			<rect x="74.848" y="59.104" fill="#282D33" width="7.381" height="4"/>
		</g>
		<g>
			<rect x="89.384" y="59.104" fill="#282D33" width="7.388" height="4"/>
		</g>
		<g>
			<rect x="103.923" y="59.104" fill="#282D33" width="7.384" height="4"/>
		</g>
		<g>
			<rect x="16.694" y="72.279" fill="#282D33" width="7.383" height="4"/>
		</g>
		<g>
			<rect x="31.233" y="72.279" fill="#282D33" width="7.381" height="4"/>
		</g>
		<g>
			<rect x="45.771" y="72.279" fill="#282D33" width="7.382" height="4"/>
		</g>
		<g>
			<rect x="60.309" y="72.279" fill="#282D33" width="7.38" height="4"/>
		</g>
		<g>
			<rect x="74.848" y="72.279" fill="#282D33" width="7.381" height="4"/>
		</g>
		<g>
			<rect x="89.384" y="72.279" fill="#282D33" width="7.388" height="4"/>
		</g>
		<g>
			<rect x="103.923" y="72.279" fill="#282D33" width="7.384" height="4"/>
		</g>
		<g>
			<rect x="16.694" y="85.455" fill="#282D33" width="7.383" height="4"/>
		</g>
		<g>
			<rect x="31.233" y="85.455" fill="#282D33" width="7.381" height="4"/>
		</g>
		<g>
			<rect x="45.771" y="85.455" fill="#282D33" width="7.382" height="4"/>
		</g>
		<g>
			<rect x="60.309" y="85.455" fill="#282D33" width="7.38" height="4"/>
		</g>
		<g>
			<rect x="74.848" y="85.455" fill="#282D33" width="7.381" height="4"/>
		</g>
		<g>
			<rect x="89.384" y="85.455" fill="#282D33" width="7.388" height="4"/>
		</g>
		<g>
			<rect x="103.923" y="85.455" fill="#282D33" width="7.384" height="4"/>
		</g>
		<g>
			<rect x="16.694" y="98.63" fill="#282D33" width="7.383" height="4"/>
		</g>
		<g>
			<rect x="31.233" y="98.63" fill="#282D33" width="7.381" height="4"/>
		</g>
		<g>
			<rect x="45.771" y="98.63" fill="#282D33" width="7.382" height="4"/>
		</g>
		<g>
			<rect x="60.309" y="98.63" fill="#282D33" width="7.38" height="4"/>
		</g>
		<g>
			<rect x="74.848" y="98.63" fill="#282D33" width="7.381" height="4"/>
		</g>
		<g>
			<rect x="89.384" y="98.63" fill="#282D33" width="7.388" height="4"/>
		</g>
		<g>
			<rect x="103.923" y="98.63" fill="#282D33" width="7.384" height="4"/>
		</g>
	</g>
	<g>
		<polygon fill="#282D33" points="128,121.163 0,121.163 0,43.083 4,43.083 4,117.163 124,117.163 124,43.083 128,43.083 		"/>
	</g>
	<g>
		<g>
			<path fill="#282D33" d="M30.769,32.834H15.903V6.837h14.866V32.834z M19.903,28.834h6.866V10.837h-6.866V28.834z"/>
		</g>
		<g>
			<path fill="#282D33" d="M112.096,32.834H97.23V6.837h14.865V32.834z M101.23,28.834h6.865V10.837h-6.865V28.834z"/>
		</g>
	</g>
</g>
</svg>
