<svg id="Layer_1" data-name="Layer 1" xmlns="http://www.w3.org/2000/svg" viewBox="0 0 128 128"><title>LOCATION</title><path d="M102.128,96.851l6.3,14.173a1.75,1.75,0,1,0,3.2-1.422l-6.3-14.173a1.75,1.75,0,1,0-3.2,1.422Z"/><path d="M123.1,120.649l-17.69-39.811a1.75,1.75,0,0,0-1.6-1.039H83.831C89.219,71.13,93.938,62,96.778,53.651a43.164,43.164,0,0,0,2.657-13.466,35.436,35.436,0,1,0-70.871,0,43.174,43.174,0,0,0,2.657,13.467c2.84,8.353,7.56,17.478,12.948,26.147H24.19a1.75,1.75,0,0,0-1.6,1.039L4.9,120.649a1.75,1.75,0,0,0,1.6,2.461h115a1.75,1.75,0,0,0,1.6-2.461ZM32.064,40.186a31.936,31.936,0,1,1,63.871,0,39.8,39.8,0,0,1-2.471,12.34c-3.041,8.945-8.311,18.822-14.24,28.026-.013.019-.025.039-.037.058A194.664,194.664,0,0,1,64,101.136,194.667,194.667,0,0,1,48.812,80.611c-.013-.02-.024-.04-.038-.059-5.929-9.2-11.2-19.081-14.239-28.025A39.812,39.812,0,0,1,32.064,40.186ZM9.192,119.61,25.327,83.3H46.4a194.324,194.324,0,0,0,16.29,21.663,1.75,1.75,0,0,0,2.629,0A194.313,194.313,0,0,0,81.6,83.3h21.068l16.135,36.311Z"/><path d="M64,58.775A18.592,18.592,0,1,0,45.408,40.184,18.613,18.613,0,0,0,64,58.775Zm0-33.684A15.092,15.092,0,1,1,48.908,40.184,15.109,15.109,0,0,1,64,25.092Z"/></svg>